<svg xmlns="http://www.w3.org/2000/svg" viewBox="0 0 1536 1024">
<path d="M 871 361 870 362 728 362 728 363 729 364 729 366 730 367 730 368 732 370 732 373 734 375 734 377 735 378 735 379 736 380 736 381 737 382 737 384 738 385 738 386 739 387 739 388 740 389 740 390 741 391 741 392 742 393 742 395 743 396 743 397 744 398 744 399 745 400 745 401 746 402 746 404 747 405 747 406 748 407 748 409 750 411 750 413 751 414 751 415 752 416 752 417 753 418 753 420 754 421 754 422 755 423 755 424 756 425 756 427 757 428 877 428 878 429 881 429 882 430 884 430 885 431 886 431 887 432 889 432 891 434 892 434 895 437 896 437 901 442 901 443 904 446 904 447 905 448 905 449 906 450 906 452 907 453 907 454 908 455 908 459 909 460 909 464 910 465 910 471 909 472 909 479 908 480 908 485 907 486 907 487 906 488 906 489 905 490 905 491 904 492 904 493 903 494 903 495 901 497 901 498 896 503 895 503 892 506 891 506 890 507 889 507 888 508 887 508 886 509 884 509 883 510 882 510 881 511 879 511 878 512 877 511 876 512 703 512 703 513 704 514 704 515 705 516 705 517 706 518 706 519 707 520 707 522 708 523 708 524 709 525 709 526 710 527 710 529 711 530 711 531 712 532 712 533 713 534 713 536 714 537 714 538 715 539 715 540 716 541 716 542 717 543 717 545 718 546 718 547 719 548 719 550 720 551 720 552 721 553 721 554 722 555 722 557 723 558 723 559 724 560 724 561 725 562 725 564 726 565 726 566 727 567 727 568 728 569 728 571 729 572 729 573 730 574 730 575 731 576 731 578 732 579 732 580 733 581 733 583 734 584 734 585 735 586 735 587 736 588 736 590 737 591 737 592 738 593 738 594 739 595 739 597 740 598 740 599 741 600 741 602 742 603 742 604 743 605 743 606 744 607 744 609 745 610 745 611 746 612 746 613 747 614 747 616 748 617 748 618 749 619 749 620 750 621 750 623 751 624 751 625 752 626 752 628 753 629 753 630 754 631 754 632 755 633 755 635 756 636 756 637 757 638 757 640 759 642 831 642 832 641 830 639 830 637 829 636 829 635 828 634 828 633 827 632 827 630 825 628 825 626 824 625 824 624 823 623 823 622 822 621 822 619 821 618 821 617 820 616 820 614 819 613 819 612 818 611 818 610 817 609 817 608 816 607 817 606 928 606 929 607 929 609 930 610 930 611 932 613 932 614 933 615 934 615 935 616 936 616 937 617 939 617 940 618 945 618 946 617 948 617 949 616 950 616 951 615 952 615 954 613 954 612 955 611 955 610 957 608 956 607 957 606 957 601 956 600 956 598 955 597 955 596 950 591 949 591 948 590 945 590 944 589 940 589 939 590 937 590 936 591 935 591 930 596 930 597 929 598 929 599 927 601 814 601 813 600 813 599 812 598 812 596 811 595 811 594 810 593 810 591 809 590 809 589 808 588 808 587 807 586 807 585 806 584 806 583 805 582 805 580 804 579 804 578 803 577 803 575 802 574 802 573 801 572 802 571 886 571 887 570 891 570 892 569 898 569 899 568 903 568 904 567 906 567 907 566 909 566 910 565 912 565 913 564 915 564 916 563 996 563 997 564 997 571 1016 571 1016 552 997 552 997 558 996 559 929 559 928 558 929 557 930 557 931 556 932 556 933 555 934 555 936 553 937 553 939 551 940 551 943 548 944 548 947 545 948 545 950 543 950 542 959 533 959 532 961 530 1055 530 1056 531 1056 534 1057 535 1070 535 1071 534 1071 523 1070 522 1057 522 1056 523 1056 525 1055 526 965 526 964 525 965 524 965 523 966 522 966 521 968 519 968 517 969 516 969 515 970 514 970 513 971 512 971 511 972 510 972 508 974 506 1091 506 1096 511 1097 511 1098 512 1167 512 1168 513 1168 515 1169 516 1169 517 1170 518 1170 519 1174 523 1175 523 1176 524 1178 524 1179 525 1186 525 1187 524 1188 524 1189 523 1190 523 1195 518 1195 516 1196 515 1196 513 1197 512 1196 511 1196 510 1197 509 1196 508 1196 506 1195 505 1195 504 1192 501 1192 500 1191 500 1189 498 1188 498 1187 497 1185 497 1184 496 1180 496 1179 497 1177 497 1176 498 1175 498 1174 499 1173 499 1170 502 1170 503 1169 504 1169 505 1168 506 1168 507 1167 508 1106 508 1105 507 1105 501 1104 500 1104 499 1103 498 1102 498 1101 497 1096 497 1095 498 1093 498 1093 499 1091 501 1077 501 1076 502 1057 502 1056 501 1046 501 1045 502 1041 502 1040 501 1003 501 1002 502 978 502 977 501 976 501 975 500 975 499 976 498 976 493 977 492 977 490 978 489 978 481 979 480 979 459 980 458 1025 458 1031 464 1122 464 1123 465 1123 473 1143 473 1144 472 1145 472 1145 451 1123 451 1123 459 1122 460 1035 460 1034 459 1033 459 1028 454 979 454 978 453 978 447 977 446 977 440 976 439 976 436 975 435 975 432 974 431 974 430 975 429 994 429 995 430 995 436 1010 436 1010 420 996 420 995 421 995 424 994 425 973 425 972 424 972 423 971 422 971 421 970 420 970 419 969 418 969 417 968 416 968 414 966 412 966 411 965 410 965 409 963 407 963 406 961 404 961 403 958 400 958 399 955 396 955 395 954 395 953 394 953 393 954 392 1010 392 1011 393 1011 395 1012 396 1012 397 1016 401 1017 401 1018 402 1020 402 1021 403 1025 403 1026 402 1028 402 1029 401 1030 401 1034 397 1034 396 1035 395 1035 393 1036 392 1036 388 1035 387 1035 385 1033 383 1033 382 1030 379 1029 379 1028 378 1026 378 1025 377 1022 377 1021 378 1018 378 1016 380 1015 380 1012 383 1012 384 1011 385 1011 386 1010 387 946 387 943 384 942 384 939 381 938 381 936 379 935 379 934 378 933 378 931 376 930 376 929 375 928 375 927 374 926 374 925 373 924 373 923 372 921 372 920 371 919 371 918 370 917 370 916 369 914 369 913 368 911 368 910 367 908 367 907 366 905 366 904 365 900 365 899 364 896 364 895 363 894 364 893 363 889 363 888 362 882 362 881 361 880 362 879 361 Z" fill="black"/>
<path d="M 558 358 557 359 547 359 547 373 564 373 564 369 565 368 623 368 624 369 623 370 623 371 622 372 622 373 621 374 621 375 620 376 620 377 619 378 619 379 618 380 618 381 617 382 617 384 616 385 616 386 615 387 615 388 614 389 614 390 613 391 613 392 612 393 467 393 466 392 466 391 465 390 465 389 462 386 461 386 459 384 450 384 449 385 448 385 447 386 446 386 444 388 444 389 443 390 443 391 442 392 442 399 443 400 443 402 448 407 449 407 450 408 458 408 459 407 460 407 461 406 462 406 464 404 464 403 466 401 466 399 467 398 608 398 609 399 609 401 608 402 608 403 606 405 606 407 605 408 605 409 604 410 604 411 603 412 603 414 602 415 602 416 601 417 601 418 600 419 600 420 599 421 503 421 502 420 502 416 488 416 488 429 502 429 502 426 503 425 596 425 597 426 595 428 595 430 594 431 594 432 593 433 593 434 592 435 592 436 591 437 591 438 590 439 590 440 588 442 425 442 424 441 424 440 422 438 422 437 417 432 416 432 415 431 412 431 411 430 408 430 407 431 404 431 403 432 402 432 398 436 398 437 396 439 396 441 395 442 395 443 396 444 396 450 397 451 397 452 403 458 404 458 405 459 414 459 415 458 416 458 417 457 418 457 422 453 422 452 423 451 423 450 424 449 424 448 425 447 585 447 586 448 586 449 585 450 585 451 584 452 584 453 583 454 583 456 581 458 581 459 580 460 580 462 579 463 579 464 578 465 578 466 577 467 577 469 575 471 575 472 574 473 574 474 573 475 573 476 572 477 572 478 571 479 571 480 570 481 506 481 505 480 505 475 488 475 488 492 504 492 505 491 505 487 506 486 567 486 568 487 568 488 566 490 566 491 565 492 565 494 564 495 564 496 563 497 563 498 562 499 562 501 560 503 560 504 559 505 559 507 557 509 557 510 556 511 556 513 555 514 555 515 554 516 554 517 553 518 553 519 552 520 552 521 551 522 460 522 458 520 458 515 439 515 439 534 458 534 458 528 460 526 544 526 545 527 548 527 549 528 548 529 548 530 547 531 547 532 546 533 546 535 544 537 544 538 543 539 543 541 542 542 542 543 541 544 541 545 540 546 540 547 539 548 539 550 537 552 537 553 536 554 536 555 534 557 387 557 386 556 386 548 385 547 376 547 375 548 363 548 363 570 364 571 365 570 386 570 386 563 387 562 531 562 532 563 532 564 531 565 531 566 530 567 530 568 529 569 529 570 528 571 528 572 527 573 527 574 526 575 526 577 525 578 525 579 524 580 524 581 523 582 523 583 522 584 522 585 521 586 521 587 520 588 520 589 519 590 519 591 518 592 465 592 464 591 464 588 463 587 463 584 464 583 463 582 441 582 441 605 463 605 463 597 464 596 515 596 516 597 515 598 515 599 514 600 514 602 513 603 513 604 512 605 512 606 511 607 511 609 510 610 510 611 508 613 508 615 507 616 507 617 505 619 505 622 503 624 503 625 502 626 502 628 501 629 501 630 500 631 500 632 499 633 499 634 498 635 498 636 497 637 497 639 495 641 496 642 518 642 519 641 527 641 528 642 561 642 562 641 565 641 566 640 567 640 568 639 569 639 570 638 571 638 572 637 573 637 576 634 577 634 578 633 578 632 582 628 582 627 583 626 583 625 584 624 584 623 585 622 585 621 586 620 586 619 587 618 587 616 588 615 588 614 589 613 589 612 590 611 590 609 591 608 591 607 592 606 592 604 593 603 593 602 594 601 594 600 595 599 595 597 596 596 596 595 597 594 597 593 598 592 598 590 599 589 599 588 600 587 600 585 601 584 601 583 602 582 602 581 603 580 603 579 604 578 604 576 605 575 605 574 606 573 606 571 607 570 709 570 708 569 708 567 707 566 707 565 706 564 706 563 705 562 705 561 704 560 704 559 703 558 703 556 702 555 702 554 701 553 701 551 700 550 700 549 699 548 699 546 698 545 698 544 697 543 697 542 696 541 696 540 695 539 695 537 694 536 694 535 693 534 693 533 692 532 692 530 691 529 691 528 690 527 690 526 689 525 689 524 688 523 688 522 687 521 687 519 686 518 686 516 684 514 684 512 683 511 633 511 632 510 633 509 633 507 634 506 634 505 635 504 635 503 636 502 636 500 637 499 637 498 638 497 638 496 639 495 639 493 641 491 641 489 642 488 642 486 643 485 643 484 644 483 644 482 645 481 645 479 646 478 646 477 647 476 647 474 648 473 648 472 649 471 649 469 650 468 650 467 651 466 651 465 652 464 652 462 653 461 653 460 654 459 654 458 655 457 655 455 656 454 656 453 657 452 657 451 658 450 658 448 659 447 659 446 660 445 660 443 661 442 661 441 662 440 662 439 663 438 663 436 664 435 664 433 666 431 666 429 668 427 669 428 669 429 670 430 670 432 671 433 671 435 673 437 673 439 674 440 674 442 675 443 675 444 676 445 676 446 677 447 677 449 678 450 678 451 679 452 679 453 680 454 680 456 681 457 681 458 682 459 682 460 683 461 683 463 684 464 684 465 685 466 685 467 686 468 686 470 687 471 687 472 688 473 688 474 689 475 689 477 690 478 690 479 691 480 691 482 692 483 692 484 693 485 693 486 694 487 694 489 695 490 695 491 696 492 696 493 697 494 697 496 698 497 698 498 699 499 699 500 700 501 700 503 701 504 701 505 703 507 772 507 773 506 772 505 772 504 771 503 771 502 770 501 770 500 769 499 769 497 768 496 768 495 767 494 767 493 766 492 766 491 765 490 765 488 764 487 764 486 763 485 763 484 762 483 762 481 761 480 761 479 760 478 760 477 759 476 759 475 758 474 758 473 757 472 757 470 756 469 756 468 755 467 755 465 754 464 754 463 752 461 752 459 751 458 751 457 750 456 750 455 749 454 749 453 748 452 748 451 747 450 747 448 746 447 746 446 745 445 745 443 744 442 744 441 743 440 743 438 742 437 742 436 741 435 741 434 740 433 740 432 739 431 739 430 738 429 738 427 737 426 737 425 736 424 736 422 734 420 734 419 733 418 733 416 732 415 732 414 731 413 731 412 730 411 730 409 729 408 729 407 728 406 728 405 727 404 727 403 726 402 726 400 725 399 725 398 724 397 724 396 723 395 723 393 722 392 722 391 721 390 721 389 720 388 720 386 718 384 718 381 717 380 717 379 716 378 716 377 715 376 715 375 714 374 714 373 713 372 713 370 711 368 711 366 710 365 710 364 709 363 709 362 708 361 707 362 627 362 626 363 565 363 564 362 564 359 563 358 561 358 560 359 559 358 Z" fill="black"/>
</svg>